<svg xmlns="http://www.w3.org/2000/svg" viewBox="0 0 512 512"><rect width="512" height="512" rx="72" fill="#0b1736"/><path fill="#ffffff" d="M60.0 180.0H134.0557939914163V208.77906976744185H87.50643776824035V225.3488372093023H127.33476394849785V252.90697674418604H87.50643776824035V271.22093023255815H134.92703862660943V300.0H60.0Z M154.862660944206 180.0H224.0643776824034V208.77906976744185H182.36909871244634V229.36046511627907H218.2145922746781V256.9186046511628H182.36909871244634V300.0H154.862660944206Z M316.4377682403433 300.0V256.74418604651163Q316.4377682403433 248.72093023255815 316.8733905579399 240.26162790697674Q317.3090128755365 231.80232558139534 317.80686695278973 226.04651162790697Q318.3047210300429 220.2906976744186 318.4291845493562 218.72093023255815H317.931330472103L302.1244635193133 300.0H280.5922746781116L264.6609442060086 218.8953488372093H264.16309012875536Q264.28755364806864 220.46511627906978 264.8476394849785 226.13372093023256Q265.4077253218884 231.80232558139534 265.90557939914163 240.26162790697674Q266.40343347639487 248.72093023255815 266.40343347639487 256.74418604651163V300.0H241.13733905579397V180.0H279.96995708154503L292.91416309012874 249.24418604651163H293.412017167382L306.23175965665234 180.0H343.6952789699571V300.0Z M452.0 223.43023255813955H425.7381974248927Q425.7381974248927 215.93023255813955 421.0085836909871 211.30813953488374Q416.27896995708153 206.68604651162792 409.55793991416306 206.68604651162792Q399.84978540772534 206.68604651162792 394.87124463519314 213.92441860465118Q389.89270386266094 221.1627906976744 389.89270386266094 234.4186046511628V245.5813953488372Q389.89270386266094 258.83720930232556 394.87124463519314 266.0755813953488Q399.84978540772534 273.3139534883721 409.55793991416306 273.3139534883721Q416.27896995708153 273.3139534883721 421.0085836909871 268.8662790697674Q425.7381974248927 264.4186046511628 425.7381974248927 257.4418604651163H406.32188841201713V233.02325581395348H452.0V300.0H437.81115879828326L435.0729613733905 288.13953488372096Q423.3733905579399 302.09302325581393 404.4549356223176 302.09302325581393Q383.17167381974247 302.09302325581393 372.46781115879827 286.4825581395349Q361.7639484978541 270.87209302325584 361.7639484978541 240.0Q361.7639484978541 209.47674418604652 373.8991416309013 193.6918604651163Q386.0343347639485 177.90697674418604 408.43776824034336 177.90697674418604Q420.7596566523605 177.90697674418604 430.59227467811155 183.13953488372093Q440.4248927038626 188.37209302325581 446.2124463519313 198.57558139534882Q452.0 208.77906976744185 452.0 223.43023255813955Z"/></svg>